<svg width="488" height="135" viewBox="0 0 488 135" fill="none" xmlns="http://www.w3.org/2000/svg">
<g filter="url(#filter0_d_4667_48390)">
<path d="M39.1307 31H198.966C203.198 31 206.611 34.333 207.642 38.4373C211.553 53.9967 224.647 66 243.429 66C262.418 66 276.084 55.2654 279.956 38.4961C280.912 34.3555 284.327 31 288.577 31H448.869C453.912 31 458 34.9797 458 39.8889L458 106H30L30 39.8889C30 34.9797 34.088 31 39.1307 31Z" fill="white"/>
</g>
<rect x="214" y="1" width="60" height="60" rx="30" fill="url(#paint0_linear_4667_48390)"/>
<path fill-rule="evenodd" clip-rule="evenodd" d="M248.686 21H239.314C236.048 21 234 23.3121 234 26.5852V35.4148C234 38.6879 236.038 41 239.314 41H248.686C251.962 41 254 38.6879 254 35.4148V26.5852C254 23.3121 251.962 21 248.686 21Z" fill="white" stroke="white" stroke-width="2" stroke-linecap="round" stroke-linejoin="round"/>
<path d="M244.003 25.4004V36.6004" stroke="url(#paint1_linear_4667_48390)" stroke-width="2" stroke-linecap="round" stroke-linejoin="round"/>
<path d="M249.598 30.9992H238.398" stroke="url(#paint2_linear_4667_48390)" stroke-width="2" stroke-linecap="round" stroke-linejoin="round"/>
<defs>
<filter id="filter0_d_4667_48390" x="0" y="0" width="488" height="135" filterUnits="userSpaceOnUse" color-interpolation-filters="sRGB">
<feFlood flood-opacity="0" result="BackgroundImageFix"/>
<feColorMatrix in="SourceAlpha" type="matrix" values="0 0 0 0 0 0 0 0 0 0 0 0 0 0 0 0 0 0 127 0" result="hardAlpha"/>
<feOffset dy="-1"/>
<feGaussianBlur stdDeviation="15"/>
<feColorMatrix type="matrix" values="0 0 0 0 0.541176 0 0 0 0 0.584314 0 0 0 0 0.619608 0 0 0 0.2 0"/>
<feBlend mode="normal" in2="BackgroundImageFix" result="effect1_dropShadow_4667_48390"/>
<feBlend mode="normal" in="SourceGraphic" in2="effect1_dropShadow_4667_48390" result="shape"/>
</filter>
<linearGradient id="paint0_linear_4667_48390" x1="274" y1="61" x2="213.023" y2="59.9898" gradientUnits="userSpaceOnUse">
<stop stop-color="#E2E57A"/>
<stop offset="1" stop-color="#7FC08B"/>
</linearGradient>
<linearGradient id="paint1_linear_4667_48390" x1="244.803" y1="36.6004" x2="243.177" y2="36.5965" gradientUnits="userSpaceOnUse">
<stop stop-color="#E2E57A"/>
<stop offset="1" stop-color="#7FC08B"/>
</linearGradient>
<linearGradient id="paint2_linear_4667_48390" x1="249.598" y1="31.7992" x2="238.364" y2="30.4963" gradientUnits="userSpaceOnUse">
<stop stop-color="#E2E57A"/>
<stop offset="1" stop-color="#7FC08B"/>
</linearGradient>
</defs>
</svg>
